<mxfile host="app.diagrams.net" modified="2022-03-11T16:14:22.196Z" agent="5.0 (Windows NT 10.0; Win64; x64) AppleWebKit/537.36 (KHTML, like Gecko) Chrome/99.0.4844.51 Safari/537.36" etag="40jDbmUBJIy8Zxc-gTOd" version="17.1.0" type="github">
  <diagram id="qPQmUhBM78TrpknZfWtH" name="Page-1">
    <mxGraphModel dx="1902" dy="974" grid="1" gridSize="10" guides="1" tooltips="1" connect="1" arrows="1" fold="1" page="1" pageScale="1" pageWidth="827" pageHeight="1169" math="0" shadow="0">
      <root>
        <mxCell id="0" />
        <mxCell id="1" parent="0" />
        <mxCell id="KbZvEqjOg_HOtk6gyDYF-3" value="DEPARTAMENTOS" style="rounded=0;whiteSpace=wrap;html=1;fontSize=14;" parent="1" vertex="1">
          <mxGeometry x="789.6771300448431" y="907.0945454545453" width="161.9730941704036" height="127.63636363636364" as="geometry" />
        </mxCell>
        <mxCell id="KbZvEqjOg_HOtk6gyDYF-4" value="PROYECTOS" style="rounded=0;whiteSpace=wrap;html=1;fontSize=14;" parent="1" vertex="1">
          <mxGeometry x="1305.291479820628" y="907.0945454545453" width="161.9730941704036" height="127.63636363636364" as="geometry" />
        </mxCell>
        <mxCell id="KbZvEqjOg_HOtk6gyDYF-5" style="edgeStyle=orthogonalEdgeStyle;rounded=0;orthogonalLoop=1;jettySize=auto;html=1;entryX=0.125;entryY=0.5;entryDx=0;entryDy=0;entryPerimeter=0;endArrow=none;endFill=0;fontSize=14;" parent="1" target="KbZvEqjOg_HOtk6gyDYF-27" edge="1">
          <mxGeometry x="50" y="705.0036363636362" as="geometry">
            <mxPoint x="468.43049327354265" y="970.9127272727272" as="sourcePoint" />
          </mxGeometry>
        </mxCell>
        <mxCell id="KbZvEqjOg_HOtk6gyDYF-6" value="1" style="edgeLabel;html=1;align=center;verticalAlign=middle;resizable=0;points=[];fontSize=14;" parent="KbZvEqjOg_HOtk6gyDYF-5" vertex="1" connectable="0">
          <mxGeometry x="-0.7733" relative="1" as="geometry">
            <mxPoint as="offset" />
          </mxGeometry>
        </mxCell>
        <mxCell id="KbZvEqjOg_HOtk6gyDYF-7" value="EMPLEADOS" style="rounded=0;whiteSpace=wrap;html=1;fontSize=14;" parent="1" vertex="1">
          <mxGeometry x="306.45739910313904" y="902.730909090909" width="161.9730941704036" height="127.63636363636364" as="geometry" />
        </mxCell>
        <mxCell id="KbZvEqjOg_HOtk6gyDYF-8" style="edgeStyle=orthogonalEdgeStyle;rounded=0;orthogonalLoop=1;jettySize=auto;html=1;entryX=0;entryY=0.5;entryDx=0;entryDy=0;endArrow=none;endFill=0;fontSize=14;" parent="1" source="KbZvEqjOg_HOtk6gyDYF-9" target="KbZvEqjOg_HOtk6gyDYF-7" edge="1">
          <mxGeometry x="50" y="690.0036363636362" as="geometry" />
        </mxCell>
        <mxCell id="KbZvEqjOg_HOtk6gyDYF-9" value="&lt;u&gt;NIF&lt;/u&gt;" style="ellipse;whiteSpace=wrap;html=1;fontSize=14;" parent="1" vertex="1">
          <mxGeometry x="50" y="760.0036363636362" width="161.9730941704036" height="106.36363636363637" as="geometry" />
        </mxCell>
        <mxCell id="KbZvEqjOg_HOtk6gyDYF-10" style="edgeStyle=orthogonalEdgeStyle;rounded=0;orthogonalLoop=1;jettySize=auto;html=1;endArrow=none;endFill=0;fontSize=14;" parent="1" source="KbZvEqjOg_HOtk6gyDYF-11" target="KbZvEqjOg_HOtk6gyDYF-7" edge="1">
          <mxGeometry x="50" y="690.0036363636362" as="geometry" />
        </mxCell>
        <mxCell id="KbZvEqjOg_HOtk6gyDYF-11" value="NOMBRE" style="ellipse;whiteSpace=wrap;html=1;fontSize=14;" parent="1" vertex="1">
          <mxGeometry x="50" y="908.9127272727272" width="161.9730941704036" height="106.36363636363637" as="geometry" />
        </mxCell>
        <mxCell id="KbZvEqjOg_HOtk6gyDYF-12" style="edgeStyle=orthogonalEdgeStyle;rounded=0;orthogonalLoop=1;jettySize=auto;html=1;entryX=0;entryY=0.5;entryDx=0;entryDy=0;endArrow=none;endFill=0;fontSize=14;" parent="1" source="KbZvEqjOg_HOtk6gyDYF-13" target="KbZvEqjOg_HOtk6gyDYF-7" edge="1">
          <mxGeometry x="50" y="690.0036363636362" as="geometry" />
        </mxCell>
        <mxCell id="KbZvEqjOg_HOtk6gyDYF-13" value="SUELDO" style="ellipse;whiteSpace=wrap;html=1;fontSize=14;" parent="1" vertex="1">
          <mxGeometry x="50" y="1050.0081818181816" width="161.9730941704036" height="106.36363636363637" as="geometry" />
        </mxCell>
        <mxCell id="KbZvEqjOg_HOtk6gyDYF-14" style="edgeStyle=orthogonalEdgeStyle;rounded=0;orthogonalLoop=1;jettySize=auto;html=1;entryX=0.5;entryY=1;entryDx=0;entryDy=0;endArrow=none;endFill=0;fontSize=14;" parent="1" source="KbZvEqjOg_HOtk6gyDYF-15" target="KbZvEqjOg_HOtk6gyDYF-3" edge="1">
          <mxGeometry x="50" y="705.0036363636362" as="geometry" />
        </mxCell>
        <mxCell id="KbZvEqjOg_HOtk6gyDYF-15" value="COD. DEPARTAMENTO" style="ellipse;whiteSpace=wrap;html=1;fontSize=14;" parent="1" vertex="1">
          <mxGeometry x="701.9417040358745" y="1183.6399999999999" width="161.9730941704036" height="106.36363636363637" as="geometry" />
        </mxCell>
        <mxCell id="KbZvEqjOg_HOtk6gyDYF-16" style="edgeStyle=orthogonalEdgeStyle;rounded=0;orthogonalLoop=1;jettySize=auto;html=1;entryX=0.5;entryY=1;entryDx=0;entryDy=0;endArrow=none;endFill=0;fontSize=14;" parent="1" source="KbZvEqjOg_HOtk6gyDYF-17" target="KbZvEqjOg_HOtk6gyDYF-3" edge="1">
          <mxGeometry x="50" y="705.0036363636362" as="geometry" />
        </mxCell>
        <mxCell id="KbZvEqjOg_HOtk6gyDYF-17" value="&lt;u&gt;NOMBRE DEPARTAMENTO&lt;/u&gt;" style="ellipse;whiteSpace=wrap;html=1;fontSize=14;" parent="1" vertex="1">
          <mxGeometry x="877.4125560538116" y="1183.6399999999999" width="161.9730941704036" height="106.36363636363637" as="geometry" />
        </mxCell>
        <mxCell id="KbZvEqjOg_HOtk6gyDYF-18" style="edgeStyle=orthogonalEdgeStyle;rounded=0;orthogonalLoop=1;jettySize=auto;html=1;entryX=0.5;entryY=1;entryDx=0;entryDy=0;endArrow=none;endFill=0;fontSize=14;" parent="1" source="KbZvEqjOg_HOtk6gyDYF-19" target="KbZvEqjOg_HOtk6gyDYF-4" edge="1">
          <mxGeometry x="50" y="705.0036363636362" as="geometry" />
        </mxCell>
        <mxCell id="KbZvEqjOg_HOtk6gyDYF-19" value="&lt;u&gt;COD. PROYECTO&lt;/u&gt;" style="ellipse;whiteSpace=wrap;html=1;fontSize=14;" parent="1" vertex="1">
          <mxGeometry x="1217.5560538116592" y="1183.6399999999999" width="161.9730941704036" height="106.36363636363637" as="geometry" />
        </mxCell>
        <mxCell id="KbZvEqjOg_HOtk6gyDYF-20" style="edgeStyle=orthogonalEdgeStyle;rounded=0;orthogonalLoop=1;jettySize=auto;html=1;endArrow=none;endFill=0;fontSize=14;" parent="1" source="KbZvEqjOg_HOtk6gyDYF-21" target="KbZvEqjOg_HOtk6gyDYF-4" edge="1">
          <mxGeometry x="50" y="705.0036363636362" as="geometry" />
        </mxCell>
        <mxCell id="KbZvEqjOg_HOtk6gyDYF-21" value="NOMBRE PROYECTO" style="ellipse;whiteSpace=wrap;html=1;fontSize=14;" parent="1" vertex="1">
          <mxGeometry x="1393.0269058295964" y="1183.6399999999999" width="161.9730941704036" height="106.36363636363637" as="geometry" />
        </mxCell>
        <mxCell id="KbZvEqjOg_HOtk6gyDYF-22" style="edgeStyle=orthogonalEdgeStyle;rounded=0;orthogonalLoop=1;jettySize=auto;html=1;entryX=0;entryY=0.5;entryDx=0;entryDy=0;endArrow=none;endFill=0;fontSize=14;" parent="1" source="KbZvEqjOg_HOtk6gyDYF-24" target="KbZvEqjOg_HOtk6gyDYF-4" edge="1">
          <mxGeometry x="50" y="705.0036363636362" as="geometry" />
        </mxCell>
        <mxCell id="KbZvEqjOg_HOtk6gyDYF-23" value="N" style="edgeLabel;html=1;align=center;verticalAlign=middle;resizable=0;points=[];fontSize=14;" parent="KbZvEqjOg_HOtk6gyDYF-22" vertex="1" connectable="0">
          <mxGeometry x="0.8582" y="1" relative="1" as="geometry">
            <mxPoint as="offset" />
          </mxGeometry>
        </mxCell>
        <mxCell id="KbZvEqjOg_HOtk6gyDYF-24" value="Participa" style="rhombus;whiteSpace=wrap;html=1;fontSize=14;" parent="1" vertex="1">
          <mxGeometry x="1075.8295964125562" y="885.8218181818181" width="107.98206278026908" height="170.1818181818182" as="geometry" />
        </mxCell>
        <mxCell id="KbZvEqjOg_HOtk6gyDYF-25" style="edgeStyle=orthogonalEdgeStyle;rounded=0;orthogonalLoop=1;jettySize=auto;html=1;entryX=0;entryY=0.5;entryDx=0;entryDy=0;endArrow=none;endFill=0;fontSize=14;" parent="1" source="KbZvEqjOg_HOtk6gyDYF-3" target="KbZvEqjOg_HOtk6gyDYF-24" edge="1">
          <mxGeometry x="50" y="705.0036363636362" as="geometry" />
        </mxCell>
        <mxCell id="KbZvEqjOg_HOtk6gyDYF-26" value="M" style="edgeLabel;html=1;align=center;verticalAlign=middle;resizable=0;points=[];fontSize=14;" parent="KbZvEqjOg_HOtk6gyDYF-25" vertex="1" connectable="0">
          <mxGeometry x="-0.795" relative="1" as="geometry">
            <mxPoint as="offset" />
          </mxGeometry>
        </mxCell>
        <mxCell id="KbZvEqjOg_HOtk6gyDYF-27" value="Trabaja" style="rhombus;whiteSpace=wrap;html=1;fontSize=14;" parent="1" vertex="1">
          <mxGeometry x="576.4125560538117" y="885.8218181818181" width="107.98206278026908" height="170.1818181818182" as="geometry" />
        </mxCell>
        <mxCell id="KbZvEqjOg_HOtk6gyDYF-28" style="edgeStyle=orthogonalEdgeStyle;rounded=0;orthogonalLoop=1;jettySize=auto;html=1;entryX=1;entryY=0.5;entryDx=0;entryDy=0;endArrow=none;endFill=0;fontSize=14;" parent="1" source="KbZvEqjOg_HOtk6gyDYF-3" target="KbZvEqjOg_HOtk6gyDYF-27" edge="1">
          <mxGeometry x="50" y="705.0036363636362" as="geometry">
            <mxPoint x="778.8789237668162" y="970.9127272727272" as="sourcePoint" />
          </mxGeometry>
        </mxCell>
        <mxCell id="KbZvEqjOg_HOtk6gyDYF-29" value="N" style="edgeLabel;html=1;align=center;verticalAlign=middle;resizable=0;points=[];fontSize=14;" parent="KbZvEqjOg_HOtk6gyDYF-28" vertex="1" connectable="0">
          <mxGeometry x="-0.8022" relative="1" as="geometry">
            <mxPoint as="offset" />
          </mxGeometry>
        </mxCell>
        <mxCell id="KbZvEqjOg_HOtk6gyDYF-30" style="edgeStyle=orthogonalEdgeStyle;rounded=0;orthogonalLoop=1;jettySize=auto;html=1;entryX=0.5;entryY=0;entryDx=0;entryDy=0;fontSize=14;endArrow=none;endFill=0;" parent="1" source="KbZvEqjOg_HOtk6gyDYF-31" target="KbZvEqjOg_HOtk6gyDYF-4" edge="1">
          <mxGeometry relative="1" as="geometry" />
        </mxCell>
        <mxCell id="KbZvEqjOg_HOtk6gyDYF-31" value="PRESUPUESTO" style="ellipse;whiteSpace=wrap;html=1;fontSize=14;" parent="1" vertex="1">
          <mxGeometry x="1239.9969058295965" y="690" width="161.9730941704036" height="106.36363636363637" as="geometry" />
        </mxCell>
        <mxCell id="KbZvEqjOg_HOtk6gyDYF-32" style="edgeStyle=orthogonalEdgeStyle;rounded=0;orthogonalLoop=1;jettySize=auto;html=1;entryX=0.5;entryY=0;entryDx=0;entryDy=0;fontSize=14;endArrow=none;endFill=0;" parent="1" source="KbZvEqjOg_HOtk6gyDYF-33" target="KbZvEqjOg_HOtk6gyDYF-4" edge="1">
          <mxGeometry relative="1" as="geometry" />
        </mxCell>
        <mxCell id="KbZvEqjOg_HOtk6gyDYF-33" value="% SUBVENCIONADO" style="ellipse;whiteSpace=wrap;html=1;fontSize=14;" parent="1" vertex="1">
          <mxGeometry x="1409.9969058295965" y="690" width="161.9730941704036" height="106.36363636363637" as="geometry" />
        </mxCell>
        <mxCell id="IPPZooGv53muGN30lpPs-1" value="Vehículos" style="swimlane;fontStyle=0;childLayout=stackLayout;horizontal=1;startSize=26;horizontalStack=0;resizeParent=1;resizeParentMax=0;resizeLast=0;collapsible=1;marginBottom=0;align=center;fontSize=14;" parent="1" vertex="1">
          <mxGeometry x="1030" y="40" width="160" height="230" as="geometry" />
        </mxCell>
        <mxCell id="IPPZooGv53muGN30lpPs-2" value="- numRuedas: entero&#xa;- marca: cadena&#xa;-modelo: cadena" style="text;strokeColor=none;fillColor=none;spacingLeft=4;spacingRight=4;overflow=hidden;rotatable=0;points=[[0,0.5],[1,0.5]];portConstraint=eastwest;fontSize=12;" parent="IPPZooGv53muGN30lpPs-1" vertex="1">
          <mxGeometry y="26" width="160" height="144" as="geometry" />
        </mxCell>
        <mxCell id="IPPZooGv53muGN30lpPs-3" value="+ visualizar()&#xa;+mostrarPropietario()" style="text;strokeColor=none;fillColor=none;spacingLeft=4;spacingRight=4;overflow=hidden;rotatable=0;points=[[0,0.5],[1,0.5]];portConstraint=eastwest;fontSize=12;" parent="IPPZooGv53muGN30lpPs-1" vertex="1">
          <mxGeometry y="170" width="160" height="60" as="geometry" />
        </mxCell>
        <mxCell id="IPPZooGv53muGN30lpPs-4" value="Persona" style="swimlane;fontStyle=0;childLayout=stackLayout;horizontal=1;startSize=26;horizontalStack=0;resizeParent=1;resizeParentMax=0;resizeLast=0;collapsible=1;marginBottom=0;align=center;fontSize=14;" parent="1" vertex="1">
          <mxGeometry x="1380" y="40" width="190" height="160" as="geometry" />
        </mxCell>
        <mxCell id="IPPZooGv53muGN30lpPs-5" value="- NIF: cadena&#xa;- nombre: cadena" style="text;strokeColor=none;fillColor=none;spacingLeft=4;spacingRight=4;overflow=hidden;rotatable=0;points=[[0,0.5],[1,0.5]];portConstraint=eastwest;fontSize=12;" parent="IPPZooGv53muGN30lpPs-4" vertex="1">
          <mxGeometry y="26" width="190" height="74" as="geometry" />
        </mxCell>
        <mxCell id="IPPZooGv53muGN30lpPs-6" value="+ comprarVehículo(Vehículo)&#xa;+venderVehículo(Vehículo)" style="text;strokeColor=none;fillColor=none;spacingLeft=4;spacingRight=4;overflow=hidden;rotatable=0;points=[[0,0.5],[1,0.5]];portConstraint=eastwest;fontSize=12;" parent="IPPZooGv53muGN30lpPs-4" vertex="1">
          <mxGeometry y="100" width="190" height="60" as="geometry" />
        </mxCell>
        <mxCell id="IPPZooGv53muGN30lpPs-7" value="Coche" style="swimlane;fontStyle=0;childLayout=stackLayout;horizontal=1;startSize=26;horizontalStack=0;resizeParent=1;resizeParentMax=0;resizeLast=0;collapsible=1;marginBottom=0;align=center;fontSize=14;" parent="1" vertex="1">
          <mxGeometry x="915.29" y="380" width="160" height="230" as="geometry" />
        </mxCell>
        <mxCell id="IPPZooGv53muGN30lpPs-8" value="- numRuedas = 4&#xa;- fechaPagoSeguro: fecha&#xa;- cilindrada: cadena" style="text;strokeColor=none;fillColor=none;spacingLeft=4;spacingRight=4;overflow=hidden;rotatable=0;points=[[0,0.5],[1,0.5]];portConstraint=eastwest;fontSize=12;" parent="IPPZooGv53muGN30lpPs-7" vertex="1">
          <mxGeometry y="26" width="160" height="144" as="geometry" />
        </mxCell>
        <mxCell id="IPPZooGv53muGN30lpPs-9" value="+ renovarSeguro(fecha)" style="text;strokeColor=none;fillColor=none;spacingLeft=4;spacingRight=4;overflow=hidden;rotatable=0;points=[[0,0.5],[1,0.5]];portConstraint=eastwest;fontSize=12;" parent="IPPZooGv53muGN30lpPs-7" vertex="1">
          <mxGeometry y="170" width="160" height="60" as="geometry" />
        </mxCell>
        <mxCell id="IPPZooGv53muGN30lpPs-10" value="Bicicleta" style="swimlane;fontStyle=0;childLayout=stackLayout;horizontal=1;startSize=26;horizontalStack=0;resizeParent=1;resizeParentMax=0;resizeLast=0;collapsible=1;marginBottom=0;align=center;fontSize=14;" parent="1" vertex="1">
          <mxGeometry x="1145.29" y="380" width="160" height="170" as="geometry" />
        </mxCell>
        <mxCell id="IPPZooGv53muGN30lpPs-11" value="- numRuedas = 2&#xa;- numCoronas: int&#xa;-numPiñones: int" style="text;strokeColor=none;fillColor=none;spacingLeft=4;spacingRight=4;overflow=hidden;rotatable=0;points=[[0,0.5],[1,0.5]];portConstraint=eastwest;fontSize=12;" parent="IPPZooGv53muGN30lpPs-10" vertex="1">
          <mxGeometry y="26" width="160" height="144" as="geometry" />
        </mxCell>
        <mxCell id="IPPZooGv53muGN30lpPs-13" style="edgeStyle=orthogonalEdgeStyle;rounded=0;orthogonalLoop=1;jettySize=auto;html=1;endArrow=none;endFill=0;entryX=-0.011;entryY=0.96;entryDx=0;entryDy=0;entryPerimeter=0;" parent="1" source="IPPZooGv53muGN30lpPs-2" target="IPPZooGv53muGN30lpPs-5" edge="1">
          <mxGeometry relative="1" as="geometry" />
        </mxCell>
        <mxCell id="IPPZooGv53muGN30lpPs-15" value="" style="endArrow=block;html=1;rounded=0;endFill=0;exitX=0.437;exitY=-0.002;exitDx=0;exitDy=0;exitPerimeter=0;strokeWidth=1;jumpSize=10;endSize=16;" parent="1" source="IPPZooGv53muGN30lpPs-7" edge="1">
          <mxGeometry width="50" height="50" relative="1" as="geometry">
            <mxPoint x="1000" y="370" as="sourcePoint" />
            <mxPoint x="1090" y="280" as="targetPoint" />
          </mxGeometry>
        </mxCell>
        <mxCell id="IPPZooGv53muGN30lpPs-16" value="" style="endArrow=block;html=1;rounded=0;endFill=0;exitX=0.5;exitY=0;exitDx=0;exitDy=0;endSize=16;" parent="1" source="IPPZooGv53muGN30lpPs-10" edge="1">
          <mxGeometry width="50" height="50" relative="1" as="geometry">
            <mxPoint x="1210" y="370" as="sourcePoint" />
            <mxPoint x="1110" y="280" as="targetPoint" />
          </mxGeometry>
        </mxCell>
        <mxCell id="IPPZooGv53muGN30lpPs-17" value="*" style="text;html=1;align=center;verticalAlign=middle;resizable=0;points=[];autosize=1;strokeColor=none;fillColor=none;" parent="1" vertex="1">
          <mxGeometry x="1200" y="110" width="20" height="20" as="geometry" />
        </mxCell>
        <mxCell id="IPPZooGv53muGN30lpPs-18" value="1" style="text;html=1;align=center;verticalAlign=middle;resizable=0;points=[];autosize=1;strokeColor=none;fillColor=none;" parent="1" vertex="1">
          <mxGeometry x="1350" y="110" width="20" height="20" as="geometry" />
        </mxCell>
        <mxCell id="IPPZooGv53muGN30lpPs-20" value="CLASE BASE" style="text;html=1;align=center;verticalAlign=middle;resizable=0;points=[];autosize=1;strokeColor=none;fillColor=none;" parent="1" vertex="1">
          <mxGeometry x="1055.83" y="10" width="90" height="20" as="geometry" />
        </mxCell>
        <mxCell id="IPPZooGv53muGN30lpPs-21" value="CLASE" style="text;html=1;align=center;verticalAlign=middle;resizable=0;points=[];autosize=1;strokeColor=none;fillColor=none;" parent="1" vertex="1">
          <mxGeometry x="1450" y="10" width="50" height="20" as="geometry" />
        </mxCell>
        <mxCell id="IPPZooGv53muGN30lpPs-22" value="CLASE DERIVADA" style="text;html=1;align=center;verticalAlign=middle;resizable=0;points=[];autosize=1;strokeColor=none;fillColor=none;" parent="1" vertex="1">
          <mxGeometry x="935.29" y="620" width="120" height="20" as="geometry" />
        </mxCell>
        <mxCell id="IPPZooGv53muGN30lpPs-24" value="CLASE DERIVADA" style="text;html=1;align=center;verticalAlign=middle;resizable=0;points=[];autosize=1;strokeColor=none;fillColor=none;" parent="1" vertex="1">
          <mxGeometry x="1165.29" y="565" width="120" height="20" as="geometry" />
        </mxCell>
        <mxCell id="B_6Ww2tMq4HDhnK0vB5A-19" style="edgeStyle=orthogonalEdgeStyle;rounded=0;orthogonalLoop=1;jettySize=auto;html=1;endArrow=none;endFill=0;" parent="1" source="B_6Ww2tMq4HDhnK0vB5A-1" target="B_6Ww2tMq4HDhnK0vB5A-10" edge="1">
          <mxGeometry relative="1" as="geometry" />
        </mxCell>
        <mxCell id="B_6Ww2tMq4HDhnK0vB5A-20" value="N" style="edgeLabel;html=1;align=center;verticalAlign=middle;resizable=0;points=[];" parent="B_6Ww2tMq4HDhnK0vB5A-19" vertex="1" connectable="0">
          <mxGeometry x="-0.7579" relative="1" as="geometry">
            <mxPoint as="offset" />
          </mxGeometry>
        </mxCell>
        <mxCell id="B_6Ww2tMq4HDhnK0vB5A-1" value="Usuarios" style="rounded=0;whiteSpace=wrap;html=1;fontSize=14;" parent="1" vertex="1">
          <mxGeometry x="466.45739910313904" y="1707.0009090909089" width="161.9730941704036" height="127.63636363636364" as="geometry" />
        </mxCell>
        <mxCell id="B_6Ww2tMq4HDhnK0vB5A-18" style="edgeStyle=orthogonalEdgeStyle;rounded=0;orthogonalLoop=1;jettySize=auto;html=1;endArrow=none;endFill=0;" parent="1" source="B_6Ww2tMq4HDhnK0vB5A-2" target="B_6Ww2tMq4HDhnK0vB5A-10" edge="1">
          <mxGeometry relative="1" as="geometry" />
        </mxCell>
        <mxCell id="B_6Ww2tMq4HDhnK0vB5A-21" value="N" style="edgeLabel;html=1;align=center;verticalAlign=middle;resizable=0;points=[];" parent="B_6Ww2tMq4HDhnK0vB5A-18" vertex="1" connectable="0">
          <mxGeometry x="-0.7633" relative="1" as="geometry">
            <mxPoint as="offset" />
          </mxGeometry>
        </mxCell>
        <mxCell id="B_6Ww2tMq4HDhnK0vB5A-26" style="edgeStyle=orthogonalEdgeStyle;rounded=0;orthogonalLoop=1;jettySize=auto;html=1;entryX=1;entryY=0.5;entryDx=0;entryDy=0;endArrow=none;endFill=0;exitX=0.5;exitY=0;exitDx=0;exitDy=0;" parent="1" source="B_6Ww2tMq4HDhnK0vB5A-2" target="B_6Ww2tMq4HDhnK0vB5A-25" edge="1">
          <mxGeometry relative="1" as="geometry" />
        </mxCell>
        <mxCell id="B_6Ww2tMq4HDhnK0vB5A-29" value="1" style="edgeLabel;html=1;align=center;verticalAlign=middle;resizable=0;points=[];" parent="B_6Ww2tMq4HDhnK0vB5A-26" vertex="1" connectable="0">
          <mxGeometry x="-0.8546" relative="1" as="geometry">
            <mxPoint as="offset" />
          </mxGeometry>
        </mxCell>
        <mxCell id="B_6Ww2tMq4HDhnK0vB5A-2" value="Series" style="rounded=0;whiteSpace=wrap;html=1;fontSize=14;" parent="1" vertex="1">
          <mxGeometry x="909.9973991031391" y="1707.0009090909089" width="161.9730941704036" height="127.63636363636364" as="geometry" />
        </mxCell>
        <mxCell id="B_6Ww2tMq4HDhnK0vB5A-11" style="edgeStyle=orthogonalEdgeStyle;rounded=0;orthogonalLoop=1;jettySize=auto;html=1;entryX=0;entryY=0.5;entryDx=0;entryDy=0;endArrow=none;endFill=0;" parent="1" source="B_6Ww2tMq4HDhnK0vB5A-3" target="B_6Ww2tMq4HDhnK0vB5A-1" edge="1">
          <mxGeometry relative="1" as="geometry" />
        </mxCell>
        <mxCell id="B_6Ww2tMq4HDhnK0vB5A-3" value="&lt;u&gt;id&lt;/u&gt;" style="ellipse;whiteSpace=wrap;html=1;fontSize=14;" parent="1" vertex="1">
          <mxGeometry x="190" y="1529.9981818181816" width="161.9730941704036" height="106.36363636363637" as="geometry" />
        </mxCell>
        <mxCell id="B_6Ww2tMq4HDhnK0vB5A-12" style="edgeStyle=orthogonalEdgeStyle;rounded=0;orthogonalLoop=1;jettySize=auto;html=1;endArrow=none;endFill=0;" parent="1" source="B_6Ww2tMq4HDhnK0vB5A-4" target="B_6Ww2tMq4HDhnK0vB5A-1" edge="1">
          <mxGeometry relative="1" as="geometry" />
        </mxCell>
        <mxCell id="B_6Ww2tMq4HDhnK0vB5A-4" value="nombre" style="ellipse;whiteSpace=wrap;html=1;fontSize=14;" parent="1" vertex="1">
          <mxGeometry x="190" y="1649.9981818181816" width="161.9730941704036" height="106.36363636363637" as="geometry" />
        </mxCell>
        <mxCell id="B_6Ww2tMq4HDhnK0vB5A-13" style="edgeStyle=orthogonalEdgeStyle;rounded=0;orthogonalLoop=1;jettySize=auto;html=1;entryX=0;entryY=0.5;entryDx=0;entryDy=0;endArrow=none;endFill=0;" parent="1" source="B_6Ww2tMq4HDhnK0vB5A-5" target="B_6Ww2tMq4HDhnK0vB5A-1" edge="1">
          <mxGeometry relative="1" as="geometry" />
        </mxCell>
        <mxCell id="B_6Ww2tMq4HDhnK0vB5A-5" value="email" style="ellipse;whiteSpace=wrap;html=1;fontSize=14;" parent="1" vertex="1">
          <mxGeometry x="190" y="1769.9981818181816" width="161.9730941704036" height="106.36363636363637" as="geometry" />
        </mxCell>
        <mxCell id="B_6Ww2tMq4HDhnK0vB5A-14" style="edgeStyle=orthogonalEdgeStyle;rounded=0;orthogonalLoop=1;jettySize=auto;html=1;entryX=0;entryY=0.5;entryDx=0;entryDy=0;endArrow=none;endFill=0;" parent="1" source="B_6Ww2tMq4HDhnK0vB5A-6" target="B_6Ww2tMq4HDhnK0vB5A-1" edge="1">
          <mxGeometry relative="1" as="geometry" />
        </mxCell>
        <mxCell id="B_6Ww2tMq4HDhnK0vB5A-6" value="serie favorita" style="ellipse;whiteSpace=wrap;html=1;fontSize=14;" parent="1" vertex="1">
          <mxGeometry x="190" y="1889.9981818181816" width="161.9730941704036" height="106.36363636363637" as="geometry" />
        </mxCell>
        <mxCell id="B_6Ww2tMq4HDhnK0vB5A-15" style="edgeStyle=orthogonalEdgeStyle;rounded=0;orthogonalLoop=1;jettySize=auto;html=1;entryX=1;entryY=0.5;entryDx=0;entryDy=0;endArrow=none;endFill=0;" parent="1" source="B_6Ww2tMq4HDhnK0vB5A-7" target="B_6Ww2tMq4HDhnK0vB5A-2" edge="1">
          <mxGeometry relative="1" as="geometry" />
        </mxCell>
        <mxCell id="B_6Ww2tMq4HDhnK0vB5A-7" value="nombre" style="ellipse;whiteSpace=wrap;html=1;fontSize=14;" parent="1" vertex="1">
          <mxGeometry x="1231.05" y="1640.6381818181817" width="161.9730941704036" height="106.36363636363637" as="geometry" />
        </mxCell>
        <mxCell id="B_6Ww2tMq4HDhnK0vB5A-16" style="edgeStyle=orthogonalEdgeStyle;rounded=0;orthogonalLoop=1;jettySize=auto;html=1;endArrow=none;endFill=0;" parent="1" source="B_6Ww2tMq4HDhnK0vB5A-8" target="B_6Ww2tMq4HDhnK0vB5A-2" edge="1">
          <mxGeometry relative="1" as="geometry" />
        </mxCell>
        <mxCell id="B_6Ww2tMq4HDhnK0vB5A-8" value="tipo" style="ellipse;whiteSpace=wrap;html=1;fontSize=14;" parent="1" vertex="1">
          <mxGeometry x="1231.05" y="1757.6381818181817" width="161.9730941704036" height="106.36363636363637" as="geometry" />
        </mxCell>
        <mxCell id="B_6Ww2tMq4HDhnK0vB5A-17" style="edgeStyle=orthogonalEdgeStyle;rounded=0;orthogonalLoop=1;jettySize=auto;html=1;endArrow=none;endFill=0;entryX=1;entryY=0.5;entryDx=0;entryDy=0;" parent="1" source="B_6Ww2tMq4HDhnK0vB5A-9" target="B_6Ww2tMq4HDhnK0vB5A-2" edge="1">
          <mxGeometry relative="1" as="geometry" />
        </mxCell>
        <mxCell id="B_6Ww2tMq4HDhnK0vB5A-9" value="#capítulos" style="ellipse;whiteSpace=wrap;html=1;fontSize=14;" parent="1" vertex="1">
          <mxGeometry x="1231.05" y="1874.6381818181817" width="161.9730941704036" height="106.36363636363637" as="geometry" />
        </mxCell>
        <mxCell id="B_6Ww2tMq4HDhnK0vB5A-10" value="Visiona" style="rhombus;whiteSpace=wrap;html=1;fontSize=14;" parent="1" vertex="1">
          <mxGeometry x="710.0025560538118" y="1685.731818181818" width="107.98206278026908" height="170.1818181818182" as="geometry" />
        </mxCell>
        <mxCell id="B_6Ww2tMq4HDhnK0vB5A-22" value="&lt;div&gt;&lt;br&gt;&lt;/div&gt;&lt;div&gt;Tenemos series de televisión y usuarios&lt;/div&gt;&lt;div&gt;De cada serie está el nombre, el tipo (terror, comedia, acción), nº capitulos&lt;/div&gt;&lt;div&gt;En usurios (id, email, nombre, su serie favorita)&lt;/div&gt;&lt;div&gt;Crear la entidad relación, crear las tablas, meter productos...&lt;/div&gt;" style="text;html=1;align=center;verticalAlign=middle;resizable=0;points=[];autosize=1;strokeColor=none;fillColor=none;" parent="1" vertex="1">
          <mxGeometry x="558.99" y="1920" width="410" height="80" as="geometry" />
        </mxCell>
        <mxCell id="B_6Ww2tMq4HDhnK0vB5A-24" style="edgeStyle=orthogonalEdgeStyle;rounded=0;orthogonalLoop=1;jettySize=auto;html=1;entryX=1;entryY=0.5;entryDx=0;entryDy=0;endArrow=none;endFill=0;" parent="1" source="B_6Ww2tMq4HDhnK0vB5A-23" target="B_6Ww2tMq4HDhnK0vB5A-2" edge="1">
          <mxGeometry relative="1" as="geometry" />
        </mxCell>
        <mxCell id="B_6Ww2tMq4HDhnK0vB5A-23" value="&lt;u&gt;id&lt;/u&gt;" style="ellipse;whiteSpace=wrap;html=1;fontSize=14;" parent="1" vertex="1">
          <mxGeometry x="1231.05" y="1529.9981818181816" width="161.9730941704036" height="106.36363636363637" as="geometry" />
        </mxCell>
        <mxCell id="B_6Ww2tMq4HDhnK0vB5A-27" style="edgeStyle=orthogonalEdgeStyle;rounded=0;orthogonalLoop=1;jettySize=auto;html=1;endArrow=none;endFill=0;" parent="1" source="B_6Ww2tMq4HDhnK0vB5A-25" target="B_6Ww2tMq4HDhnK0vB5A-1" edge="1">
          <mxGeometry relative="1" as="geometry" />
        </mxCell>
        <mxCell id="B_6Ww2tMq4HDhnK0vB5A-28" value="N" style="edgeLabel;html=1;align=center;verticalAlign=middle;resizable=0;points=[];" parent="B_6Ww2tMq4HDhnK0vB5A-27" vertex="1" connectable="0">
          <mxGeometry x="0.8523" y="1" relative="1" as="geometry">
            <mxPoint as="offset" />
          </mxGeometry>
        </mxCell>
        <mxCell id="B_6Ww2tMq4HDhnK0vB5A-25" value="es favorita" style="rhombus;whiteSpace=wrap;html=1;fontSize=14;" parent="1" vertex="1">
          <mxGeometry x="710.0025560538118" y="1466.181818181818" width="107.98206278026908" height="170.1818181818182" as="geometry" />
        </mxCell>
        <mxCell id="VuNKm9IKNrl7y4_xwce1-1" value="&lt;b&gt;DIAGRAMA UML&lt;/b&gt;" style="text;html=1;align=center;verticalAlign=middle;resizable=0;points=[];autosize=1;strokeColor=none;fillColor=none;" parent="1" vertex="1">
          <mxGeometry x="1231.05" y="10" width="110" height="20" as="geometry" />
        </mxCell>
      </root>
    </mxGraphModel>
  </diagram>
</mxfile>
